<svg width="24" height="24" viewBox="0 0 24 24" fill="none" xmlns="http://www.w3.org/2000/svg">
<path d="M12.7188 19.6367C12.3438 20.1055 11.625 20.1055 11.25 19.6367C9.65625 17.6055 6 12.7617 6 10.0117C6 6.69922 8.6875 4.01172 12 4.01172C15.3125 4.01172 18 6.69922 18 10.0117C18 12.7617 14.3438 17.6055 12.7188 19.6367ZM12 8.01172C11.2812 8.01172 10.625 8.41797 10.25 9.01172C9.90625 9.63672 9.90625 10.418 10.25 11.0117C10.625 11.6367 11.2812 12.0117 12 12.0117C12.6875 12.0117 13.3438 11.6367 13.7188 11.0117C14.0625 10.418 14.0625 9.63672 13.7188 9.01172C13.3438 8.41797 12.6875 8.01172 12 8.01172Z" fill="#808695"/>
</svg>
