<svg width="24" height="24" viewBox="0 0 24 24" fill="none" xmlns="http://www.w3.org/2000/svg">
<g id="Social Media">
<rect width="24" height="24" rx="4" fill="#2B4D99"/>
<path id="Vector" d="M7.50412 20.3078H3.69141V8.9791H7.50412V20.3078ZM5.59852 7.46861C4.54393 7.46861 3.69141 6.62198 3.69141 5.57974C3.69141 4.5375 4.54545 3.69238 5.59852 3.69238C6.64931 3.69238 7.50412 4.53901 7.50412 5.57974C7.50412 6.62198 6.64931 7.46861 5.59852 7.46861ZM21.2299 20.3078H17.5643V14.7945C17.5643 13.4796 17.5392 11.7886 15.6587 11.7886C13.7501 11.7886 13.4565 13.2205 13.4565 14.6993V20.3078H9.79174V8.97079H13.3101V10.5198H13.3597C13.8492 9.62861 15.0457 8.68908 16.83 8.68908C20.5436 8.68908 21.2299 11.0371 21.2299 14.0898C21.2299 14.0898 21.2299 20.3078 21.2299 20.3078Z" fill="white"/>
</g>
</svg>
