<svg xmlns="http://www.w3.org/2000/svg" viewBox="0 0 163.85 20.46"><defs><style>.cls-1{fill:#fff;}</style></defs><g id="Layer_2" data-name="Layer 2"><g id="Layer_1-2" data-name="Layer 1"><path class="cls-1" d="M5.92,13.72a2.86,2.86,0,0,1-2.81-2.31L0,12a6,6,0,0,0,10.2,3.1l-2.55-2a2.88,2.88,0,0,1-1.73.58M5.92,8a2.88,2.88,0,0,1,1.73.58l2.55-2A6,6,0,0,0,0,9.72l3.11.61A2.86,2.86,0,0,1,5.92,8m42.95,6.14A3,3,0,0,1,46,11.3v-.89a2.94,2.94,0,0,1,2.92-2.83A3.05,3.05,0,0,1,52,10.86a3.06,3.06,0,0,1-3.08,3.29m.94-9.31A4.75,4.75,0,0,0,46,6.71V5.11H42.7V20.46H46V15a4.72,4.72,0,0,0,3.86,1.89c3.07,0,5.3-2.49,5.3-6s-2.23-6-5.3-6m12.9,9.31a3.29,3.29,0,1,1,3.17-3.29,3.27,3.27,0,0,1-3.17,3.29m0-9.31a6.23,6.23,0,0,0-6.3,6,6.29,6.29,0,0,0,12.56,0,6.2,6.2,0,0,0-6.26-6m7.8,11.79h3.25V1.05H70.51ZM86.13,9.47c-1.56-.42-2-.6-2-1.22,0-.4.56-.69,1.36-.69a6.58,6.58,0,0,1,3.23,1L90,6.27a8.34,8.34,0,0,0-4.54-1.43c-2.72,0-4.52,1.56-4.5,3.74s1.85,2.92,4.21,3.5c1.18.31,2,.53,2,1.25,0,.51-.63.87-1.5.87a6.54,6.54,0,0,1-3.85-1.3l-1.4,2.26a8.53,8.53,0,0,0,5.19,1.73c2.83,0,4.68-1.45,4.68-3.72,0-2.52-2.21-3.18-4.19-3.7M75.9,16.63h3.25V5.11H75.9ZM77.55,0a1.78,1.78,0,0,0-1.78,1.74,1.76,1.76,0,1,0,3.52,0A1.77,1.77,0,0,0,77.55,0M38.21,1.06H35L33.75,3.54H37ZM32.9,9.58a2.78,2.78,0,0,1,2.67-1.87,2.42,2.42,0,0,1,2.48,1.87Zm2.54-4.74a5.8,5.8,0,0,0-5.93,6,5.93,5.93,0,0,0,6.11,6.06,7,7,0,0,0,4.7-1.78L38.25,13a4.21,4.21,0,0,1-2.66,1,2.8,2.8,0,0,1-2.74-2.1h8.32c0-4.34-2.12-7.08-5.73-7.08m-11.64,0a4.09,4.09,0,0,0-3.47,1.71V5.11H17.07V16.63h3.26V9.8a2.31,2.31,0,0,1,2.43-2.22A2.19,2.19,0,0,1,24.94,10v6.65h3.14V9.29A4.2,4.2,0,0,0,23.8,4.84M13.15,0a1.78,1.78,0,0,0-1.78,1.74,1.76,1.76,0,1,0,3.52,0A1.77,1.77,0,0,0,13.15,0M11.5,16.63h3.26V5.11H11.5Z"/><rect class="cls-1" x="101.74" y="2.07" width="1.56" height="15.98"/><path class="cls-1" d="M118.47,16.74a4.7,4.7,0,0,1-3.73-1.81l1.09-1.72a3.76,3.76,0,0,0,2.57,1.34c1,0,1.6-.62,1.6-1.76V6.62h-4.15v-2h6.47v8.27A3.56,3.56,0,0,1,118.47,16.74Z"/><path class="cls-1" d="M138.56,10.6a6.43,6.43,0,1,1-6.43-6.09A6.19,6.19,0,0,1,138.56,10.6Zm-10.49,0a4.09,4.09,0,0,0,4.1,4.07,4.05,4.05,0,1,0-4.1-4.07Z"/><path class="cls-1" d="M151.71,7.59a2.64,2.64,0,0,1-2.1,2.67,3,3,0,0,1,2.57,3.05c0,2.07-1.71,3.32-4.46,3.32H142.2V4.57h5.36C150.13,4.57,151.71,5.73,151.71,7.59ZM149.35,8c0-.91-.72-1.44-1.91-1.43h-2.93V9.5h2.93C148.63,9.5,149.35,9,149.35,8Zm.43,5c0-1-.88-1.59-2.34-1.57h-2.93v3.19h2.93C148.9,14.65,149.78,14.05,149.78,13Z"/><path class="cls-1" d="M159.18,6.57c-1.08,0-1.79.4-1.79,1.14,0,2.45,6.48,1.12,6.46,5.44,0,2.26-2,3.57-4.62,3.57a7.85,7.85,0,0,1-5.09-1.93l1-1.95a6.75,6.75,0,0,0,4.17,1.78c1.29,0,2.07-.48,2.07-1.33,0-2.51-6.48-1.08-6.48-5.37,0-2.11,1.81-3.45,4.51-3.45a8.19,8.19,0,0,1,4.36,1.28l-.93,2A7.78,7.78,0,0,0,159.18,6.57Z"/></g></g></svg>