<?xml version="1.0" encoding="UTF-8"?>
<svg id="Layer_2" data-name="Layer 2" xmlns="http://www.w3.org/2000/svg" viewBox="0 0 237.91 29.52">
  <defs>
    <style>
      .cls-1 {
        fill: #fff;
        stroke-width: 0px;
      }
    </style>
  </defs>
  <g id="Layer_1-2" data-name="Layer 1">
    <g>
      <path class="cls-1" d="m16.6,23.99h4.7V7.37h-4.7v16.62ZM18.98,0c-1.45,0-2.57,1.19-2.57,2.51,0,1.41,1.12,2.57,2.57,2.57s2.51-1.16,2.51-2.57c0-1.32-1.13-2.51-2.51-2.51m15.37,6.98c-2.15,0-4.02.96-5.02,2.47v-2.09h-4.69v16.62h4.69v-9.85c0-1.8,1.55-3.21,3.51-3.21s3.15,1.41,3.15,3.47v9.58h4.54v-10.58c0-3.76-2.57-6.43-6.18-6.43m16.79,0c-4.86,0-8.55,3.64-8.55,8.65s3.86,8.75,8.81,8.75c2.44,0,5.31-1.03,6.79-2.57l-2.99-3.06c-.9.87-2.51,1.48-3.83,1.48-1.96,0-3.41-1.22-3.96-3.02h12c0-6.27-3.05-10.23-8.27-10.23m-3.67,6.85c.61-1.67,2.09-2.7,3.86-2.7,1.9,0,3.12,1.06,3.57,2.7h-7.43Zm7.68-12.3h-4.7l-1.75,3.57h4.69l1.75-3.57ZM111.92,0c-1.45,0-2.57,1.19-2.57,2.51,0,1.41,1.13,2.57,2.57,2.57s2.51-1.16,2.51-2.57c0-1.32-1.13-2.51-2.51-2.51m-2.38,23.99h4.69V7.37h-4.69v16.62Zm14.76-10.32c-2.25-.61-2.93-.87-2.93-1.77,0-.58.81-1,1.96-1,1.41,0,3.15.55,4.66,1.48l1.9-3.34c-1.83-1.22-4.18-2.06-6.56-2.06-3.92,0-6.53,2.25-6.5,5.4.03,3.28,2.67,4.21,6.08,5.05,1.71.45,2.93.77,2.93,1.8,0,.74-.9,1.25-2.15,1.25-2.22,0-4.08-.81-5.56-1.86l-2.02,3.25c1.99,1.61,4.82,2.51,7.49,2.51,4.08,0,6.75-2.09,6.75-5.37,0-3.64-3.18-4.6-6.04-5.34m-22.54,10.32h4.69V1.52h-4.69v22.48Zm-11.25-17.01c-4.95,0-9.1,3.95-9.1,8.68s4.15,8.71,9.1,8.71,9.04-3.99,9.04-8.71-4.12-8.68-9.04-8.68m0,13.44c-2.51,0-4.6-2.19-4.6-4.76s2.09-4.73,4.6-4.73,4.57,2.16,4.57,4.73-2.09,4.76-4.57,4.76m-18.63-13.44c-2.31,0-4.24.99-5.56,2.7v-2.31h-4.7v22.15h4.7v-7.88c1.32,1.74,3.25,2.73,5.56,2.73,4.44,0,7.66-3.6,7.66-8.71s-3.22-8.68-7.66-8.68m-1.35,13.44c-2.28,0-3.95-1.67-4.21-4.12v-1.29c.26-2.41,1.93-4.08,4.21-4.08,2.61,0,4.44,1.96,4.44,4.73s-1.83,4.76-4.44,4.76M8.54,11.56c.94,0,1.8.32,2.49.85l3.68-2.84c-1.58-1.59-3.76-2.58-6.18-2.58C4.3,6.98.77,10.02,0,14.03l4.49.88c.36-1.91,2.04-3.35,4.05-3.35m0,8.25c-2.01,0-3.68-1.44-4.05-3.34l-4.49.86c.77,4.01,4.3,7.05,8.54,7.05,2.42,0,4.6-.99,6.18-2.58l-3.68-2.84c-.69.53-1.55.85-2.49.85"/>
      <path class="cls-1" d="m132.87,23.19c0,.62-.49,1.11-1.12,1.11s-1.13-.49-1.13-1.11.5-1.09,1.13-1.09,1.12.49,1.12,1.09m-1.97,0c0,.49.36.88.85.88s.83-.39.83-.87-.35-.88-.84-.88-.85.39-.85.88m.67.57h-.25v-1.09c.1-.02.24-.04.42-.04.21,0,.3.04.38.08.06.05.11.13.11.24,0,.12-.09.21-.23.25h0c.11.05.17.13.2.28.03.17.05.23.08.27h-.27s-.05-.14-.08-.27c-.02-.12-.09-.17-.23-.17h-.12v.44Zm0-.62h.12c.14,0,.25-.05.25-.16,0-.1-.07-.17-.23-.17-.07,0-.11,0-.14.01v.32Z"/>
      <rect class="cls-1" x="147.15" y="3.58" width="1.95" height="22.37"/>
      <path class="cls-1" d="m165.32,21.53l2.12-2.55c.9,1.2,1.89,1.82,3.07,1.82,1.53,0,2.34-.92,2.34-2.74v-7.86h-5.81v-3.07h9.61v10.72c0,4.08-2.05,6.09-5.95,6.09-2.22,0-4.18-.85-5.38-2.41"/>
      <path class="cls-1" d="m181.75,15.39c0-4.91,3.82-8.55,9.04-8.55s9.04,3.61,9.04,8.55-3.85,8.55-9.04,8.55-9.04-3.64-9.04-8.55m14.21,0c0-3.14-2.22-5.29-5.17-5.29s-5.17,2.15-5.17,5.29,2.22,5.29,5.17,5.29,5.17-2.15,5.17-5.29"/>
      <path class="cls-1" d="m220.21,19.14c0,2.86-2.27,4.51-6.61,4.51h-8.55V7.13h8.07c4.13,0,6.26,1.72,6.26,4.3,0,1.65-.85,2.93-2.2,3.64,1.84.59,3.02,2,3.02,4.08m-11.35-9.13v3.89h3.8c1.86,0,2.88-.66,2.88-1.96s-1.02-1.94-2.88-1.94h-3.8Zm7.51,8.73c0-1.39-1.06-2.05-3.05-2.05h-4.46v4.08h4.46c1.98,0,3.05-.62,3.05-2.03"/>
      <path class="cls-1" d="m224.17,22.02l1.3-2.88c1.39,1.02,3.47,1.72,5.45,1.72,2.27,0,3.19-.76,3.19-1.77,0-3.09-9.61-.97-9.61-7.11,0-2.81,2.27-5.14,6.96-5.14,2.08,0,4.2.5,5.74,1.46l-1.18,2.9c-1.53-.87-3.12-1.3-4.58-1.3-2.27,0-3.14.85-3.14,1.89,0,3.04,9.61.94,9.61,7.01,0,2.76-2.29,5.12-7.01,5.12-2.62,0-5.26-.78-6.73-1.91"/>
    </g>
  </g>
</svg>