<svg width="64" height="64" viewBox="0 0 44 44" fill="none" xmlns="http://www.w3.org/2000/svg">
<path d="M24.8362 31.1184C20.1412 31.1184 16.2235 27.9468 15.3529 23.7473L4.84359 25.6562C6.64697 34.5544 14.9176 41.25 24.8673 41.25C30.5262 41.25 35.6254 39.0769 39.3254 35.5528L30.7127 29.2683C29.0648 30.4136 27.0438 31.1184 24.8362 31.1184ZM24.8362 12.8522C27.0438 12.8522 29.0648 13.557 30.6816 14.7317L39.2943 8.44718C35.5943 4.95252 30.4951 2.75 24.8362 2.75C14.9176 2.75 6.61588 9.44565 4.8125 18.3438L15.3218 20.3114C16.1924 16.0532 20.1101 12.8522 24.8362 12.8522Z" fill="#FDFDFD"/>
</svg>
